<svg xmlns="http://www.w3.org/2000/svg" version="1.1" xmlns:xlink="http://www.w3.org/1999/xlink" xmlns:svgjs="http://svgjs.dev/svgjs" width="1500" height="477" viewBox="0 0 1500 477"><g transform="matrix(1,0,0,1,-0.9090909090911055,-0.44257731958771274)"><svg viewBox="0 0 396 126" data-background-color="#e9e2da" preserveAspectRatio="xMidYMid meet" height="477" width="1500" xmlns="http://www.w3.org/2000/svg" xmlns:xlink="http://www.w3.org/1999/xlink"><g id="tight-bounds" transform="matrix(1,0,0,1,0.24000000000003752,0.1169072164948659)"><svg viewBox="0 0 395.5199999999999 125.76618556701028" height="125.76618556701028" width="395.5199999999999"><g><svg viewBox="0 0 395.5199999999999 125.76618556701028" height="125.76618556701028" width="395.5199999999999"><g><svg viewBox="0 0 395.5199999999999 125.76618556701028" height="125.76618556701028" width="395.5199999999999"><g id="textblocktransform"><svg viewBox="0 0 395.5199999999999 125.76618556701028" height="125.76618556701028" width="395.5199999999999" id="textblock"><g><svg viewBox="0 0 395.5199999999999 125.76618556701028" height="125.76618556701028" width="395.5199999999999"><g transform="matrix(1,0,0,1,0,0)"><svg width="395.5199999999999" viewBox="0.85 -38.7 155.18 49.35" height="125.76618556701028" data-palette-color="#1b2141"><g class="wordmark-text-0" data-fill-palette-color="primary" id="text-0"><path d="M17.8-38.25L16.25-32.55Q14.4-33 12.9-33 11.4-33 10.73-32.1 10.05-31.2 10.05-28.95L10.05-28.95 10-24.2 15.4-24.2 14.85-20.1 10-20.1 9.95-13 10.5-1.25 3.75 0 4.35-12.15 4.15-20.1 0.85-20.1 1.4-24.2 4.05-24.2 4-28Q4-32.45 6.75-35.58 9.5-38.7 13.45-38.7L13.45-38.7Q15.55-38.7 17.8-38.25L17.8-38.25ZM18.05-37.45L24.9-38.7 24.25-13 24.8-1.25 18.05 0 18.65-12.15 18.05-37.45ZM30.7-24.2L37.39-25.45 36.8-13 37.34-1.25 30.64 0 31.24-12.15 30.7-24.2ZM30.34-32.77Q30.34-34.45 31.64-35.77 32.95-37.1 34.64-37.1 36.34-37.1 37.24-36.18 38.14-35.25 38.14-33.4 38.14-31.55 36.87-30.23 35.59-28.9 33.92-28.9 32.24-28.9 31.29-30 30.34-31.1 30.34-32.77ZM57.39-12.65Q57.39-16.1 56.79-17.25 56.19-18.4 53.99-18.4 51.79-18.4 48.99-16.65L48.99-16.65 48.99-13 49.54-1.25 42.84 0 43.44-12.15Q43.24-18.85 42.34-24.15L42.34-24.15 48.39-25.45Q48.74-22.55 48.89-19.8L48.89-19.8Q49.64-20.8 50.59-21.78 51.54-22.75 53.59-23.98 55.64-25.2 57.74-25.2 59.84-25.2 61.29-23.85 62.74-22.5 63.14-20.15L63.14-20.15Q67.29-25.2 71.54-25.2L71.54-25.2Q74.19-25.2 75.74-23.43 77.29-21.65 77.29-18.6L77.29-18.6 76.99-13 77.54-1 70.79 0.25 71.39-12.65Q71.39-16.1 70.79-17.25 70.19-18.4 68.04-18.4 65.89-18.4 63.19-16.75L63.19-16.75 62.99-13 63.54-1 56.79 0.25 57.39-12.65ZM96.39-25.25L96.39-25.25Q99.59-25.25 101.77-22.45 103.94-19.65 103.94-14.9L103.94-14.9Q103.94-8.25 100.52-4.13 97.09 0 91.99 0L91.99 0Q90.94 0 89.64-0.15L89.64-0.15 89.89 9.4 83.04 10.65 83.69-12.15 83.74-12.15Q83.54-18.85 82.64-24.15L82.64-24.15 88.69-25.45Q88.99-22.8 89.19-20.2L89.19-20.2Q89.29-20.45 90.22-21.58 91.14-22.7 92.94-23.98 94.74-25.25 96.39-25.25ZM94.44-18.75L94.44-18.75Q91.79-18.75 89.29-17.3L89.29-17.3 89.29-13 89.49-5.85Q92.19-5.4 93.59-5.4L93.59-5.4Q98.39-5.4 98.39-12.08 98.39-18.75 94.44-18.75ZM108.09-24.2L114.79-25.45 114.19-13 114.74-1.25 108.04 0 108.64-12.15 108.09-24.2ZM107.74-32.77Q107.74-34.45 109.04-35.77 110.34-37.1 112.04-37.1 113.74-37.1 114.64-36.18 115.54-35.25 115.54-33.4 115.54-31.55 114.26-30.23 112.99-28.9 111.31-28.9 109.64-28.9 108.69-30 107.74-31.1 107.74-32.77ZM119.74-24.15L119.74-24.15 125.79-25.45Q126.24-21.6 126.39-18.15L126.39-18.15Q130.94-25.2 134.94-25.2L134.94-25.2 134.39-17.4Q131.49-17.4 129.81-16.88 128.14-16.35 126.39-14.8L126.39-14.8 126.39-13 126.94-1.25 120.24 0 120.84-12.15Q120.64-18.85 119.74-24.15ZM147.08-5.1L147.08-5.1Q148.53-5.1 150.13-5.85 151.73-6.6 152.63-7.35L152.63-7.35 153.53-8.1 155.83-5.3Q155.33-4.45 154.28-3.35 153.23-2.25 152.16-1.48 151.08-0.7 149.31-0.08 147.53 0.55 145.63 0.55L145.63 0.55Q141.58 0.55 139.03-2.53 136.48-5.6 136.48-10.45L136.48-10.45Q136.48-16.55 140.03-21.15 143.58-25.75 148.33-25.75L148.33-25.75Q151.98-25.75 154.01-23.7 156.03-21.65 156.03-17.95L156.03-17.95Q156.03-15.75 155.28-12.95L155.28-12.95 154.28-11.9 141.78-10.75Q142.63-5.1 147.08-5.1ZM147.08-20.6L147.08-20.6Q144.88-20.6 143.38-18.82 141.88-17.05 141.63-14.3L141.63-14.3 150.13-15.35Q150.28-16.5 150.28-17.25L150.28-17.25Q150.28-20.6 147.08-20.6Z" fill="#1b2141" data-fill-palette-color="primary"></path></g></svg></g></svg></g></svg></g></svg></g></svg></g><defs></defs></svg><rect width="395.5199999999999" height="125.76618556701028" fill="none" stroke="none" visibility="hidden"></rect></g></svg></g></svg>