<svg xmlns="http://www.w3.org/2000/svg" version="1.1" xmlns:xlink="http://www.w3.org/1999/xlink" xmlns:svgjs="http://svgjs.dev/svgjs" width="1500" height="1500" viewBox="0 0 1500 1500"><rect width="1500" height="1500" fill="#cb0003"></rect><g transform="matrix(0.6666666666666666,0,0,0.6666666666666666,249.39393939393938,451.10852107035504)"><svg viewBox="0 0 396 237" data-background-color="#cb0003" preserveAspectRatio="xMidYMid meet" height="897" width="1500" xmlns="http://www.w3.org/2000/svg" xmlns:xlink="http://www.w3.org/1999/xlink"><g id="tight-bounds" transform="matrix(1,0,0,1,0.2400000000000091,-0.04300918674604759)"><svg viewBox="0 0 395.52 237.0860183734921" height="237.0860183734921" width="395.52"><g><svg viewBox="0 0 412.3927031663865 247.2" height="237.0860183734921" width="395.52"><g><svg viewBox="0 0 218.81008403361344 247.2" height="247.2" width="218.81008403361344"><g id="textblocktransform"><svg viewBox="0 0 218.81008403361344 247.2" height="247.2" width="218.81008403361344" id="textblock"><g><svg viewBox="0 0 218.81008403361344 247.2" height="247.2" width="218.81008403361344"><g transform="matrix(1,0,0,1,0,0)"><svg width="218.81008403361344" viewBox="-2.65 -35 31.599999999999998 35.7" height="247.2" data-palette-color="#d4dcf7"><path d="M9.35 0.7Q0.95 0.7-2.65-4.65L-2.65-4.65 3.75-10.75Q6.05-7.2 9.5-7.2L9.5-7.2Q13.6-7.2 14.55-11.9L14.55-11.9 17.6-27.35 5.5-27.35 7.05-35 28.95-35 24.4-12.45Q23-5.4 19.35-2.35 15.7 0.7 9.35 0.7L9.35 0.7Z" opacity="1" transform="matrix(1,0,0,1,0,0)" fill="#d4dcf7" class="wordmark-text-0" data-fill-palette-color="primary" id="text-0"></path></svg></g></svg></g></svg></g></svg></g><g transform="matrix(1,0,0,1,277.16807123361343,55.98768403361345)"><svg viewBox="0 0 135.2246319327731 135.2246319327731" height="135.2246319327731" width="135.2246319327731"><g data-palette-color="#d4dcf7"><rect width="36.96139939495798" height="135.2246319327731" fill="#d4dcf7" stroke="transparent" data-fill-palette-color="accent" x="0" fill-opacity="1"></rect><rect width="36.96139939495798" height="135.2246319327731" fill="#d4dcf7" stroke="transparent" data-fill-palette-color="accent" x="45.074877310924364" fill-opacity="0.75"></rect><rect width="36.96139939495798" height="135.2246319327731" fill="#d4dcf7" stroke="transparent" data-fill-palette-color="accent" x="90.14975462184873" fill-opacity="0.5"></rect></g></svg></g></svg></g><defs></defs></svg><rect width="395.52" height="237.0860183734921" fill="none" stroke="none" visibility="hidden"></rect></g></svg></g></svg>